<?xml version="1.0" encoding="utf-8"?>
<!-- Generator: Adobe Illustrator 19.0.0, SVG Export Plug-In . SVG Version: 6.00 Build 0)  -->
<svg version="1.1" id="Capa_1" xmlns="http://www.w3.org/2000/svg" xmlns:xlink="http://www.w3.org/1999/xlink" x="0px" y="0px"
	 viewBox="-227 350.3 140.6 140.6" style="enable-background:new -227 350.3 140.6 140.6;" xml:space="preserve">
<style type="text/css">
	.st0{display:none;fill:#FFD53D;}
</style>
<circle class="st0" cx="-156.4" cy="420.6" r="68.6"/>
<path d="M-204.3,465.5h85.1c1,0,1.8-0.8,1.8-1.7v-15.6h12.4c1,0,1.8-0.8,1.8-1.7v-17.4c0-1-0.8-1.7-1.8-1.7h-12.4v-15.6
	c0-1-0.8-1.7-1.8-1.7h-3.3c0.3-1.1,0-2.3-0.7-3.2l-8-10.5l3.7-2.7c1.6-1.2,2.6-3.1,2.4-5.1l-0.2-3.1c0-0.8,0.3-1.7,1-2.2l3.7-2.7
	l1.6,2c0.3,0.4,0.7,0.6,1.2,0.7c0.1,0,0.2,0,0.3,0c0.4,0,0.8-0.1,1.1-0.3l14.6-10.7c2.3-1.7,2.8-5,1.1-7.3l-1-1.3
	c-1.8-2.3-5.1-2.8-7.4-1l-14.6,10.7c-0.8,0.6-0.9,1.7-0.4,2.4l1.6,2l-3.7,2.7c-1.6,1.2-2.6,3.1-2.4,5.1l0.2,3.1c0,0.8-0.3,1.7-1,2.2
	l-3.7,2.7l-8-10.5c-0.8-1.1-2.2-1.7-3.6-1.6c-1.3,0.1-2.5,0.9-3.2,2l-14.6,26.5h-41.6c-1,0-1.8,0.8-1.8,1.7v17.4
	c0,1,0.8,1.7,1.8,1.7h12.4v13.9h-12.4c-1,0-1.8,0.8-1.8,1.7v17.4C-206.1,464.7-205.3,465.5-204.3,465.5z M-107.1,365.2
	c0.8-0.6,1.9-0.4,2.5,0.3l1,1.3c0.6,0.8,0.4,1.9-0.4,2.4l-13.2,9.7l-3.1-4.1L-107.1,365.2z M-174.2,448.2h24.8v13.9h-24.8V448.2z
	 M-160,430.8h24.8v13.9H-160V430.8z M-121,462.1h-24.8v-13.9h24.8V462.1z M-106.8,444.7h-24.8v-13.9h24.8V444.7z M-121,427.3h-24.8
	v-10.1l18.2-3.8h6.7V427.3z M-145,385.1c0.1-0.1,0.2-0.2,0.3-0.2l0,0c0.2,0,0.4,0.1,0.5,0.2l8,10.5l-7.3,5.4
	c-0.8,0.6-0.9,1.7-0.4,2.4c0.6,0.8,1.7,0.9,2.5,0.3l7.3-5.4l8,10.5c0.1,0.2,0.2,0.4,0.1,0.5c0,0.1-0.2,0.2-0.3,0.2l-35.2,7.3
	c-0.2,0-0.4-0.1-0.6-0.2c-0.1-0.2-0.2-0.4-0.1-0.6L-145,385.1z M-164.8,418.8c0.9,1.3,2.6,1.9,4.1,1.5l11.3-2.4v9.4h-24.8v-13.9h9.6
	l-0.5,1C-165.9,415.8-165.8,417.5-164.8,418.8z M-202.6,420.4h3.5c1,0,1.8-0.8,1.8-1.7c0-1-0.8-1.7-1.8-1.7h-3.5v-3.5h24.8v13.9
	h-24.8V420.4z M-188.4,430.8h24.8v13.9h-24.8V430.8z M-202.6,448.2h24.8v13.9h-24.8V448.2z"/>
</svg>
