<?xml version="1.0" encoding="utf-8"?>
<!-- Generator: Adobe Illustrator 19.0.0, SVG Export Plug-In . SVG Version: 6.00 Build 0)  -->
<svg version="1.1" id="Capa_1" xmlns="http://www.w3.org/2000/svg" xmlns:xlink="http://www.w3.org/1999/xlink" x="0px" y="0px"
	 viewBox="-227 350.3 140.6 140.6" style="enable-background:new -227 350.3 140.6 140.6;" xml:space="preserve">
<style type="text/css">
	.st0{fill:#FFD53D;}
</style>
<circle class="st0" cx="-156.4" cy="420.6" r="68.6"/>
<path d="M-105.7,387.9h-8.8v-5.3c0-4.3-4.3-7.9-9.6-7.9H-197c-5.3,0-9.6,3.5-9.6,7.9v5.3v6.7v5.3c0,4.3,4.3,7.9,9.6,7.9h72.9
	c5.3,0,9.6-3.5,9.6-7.9v-5.3h4.7v19.7h-47.5c-2.3,0-4.1,1.5-4.1,3.3v12.5h-0.5c-5.1,0-9.2,3.4-9.2,7.5v28.6c0,4.1,4.1,7.5,9.2,7.5
	h9.2c5.1,0,9.2-3.4,9.2-7.5v-28.6c0-4.1-4.1-7.5-9.2-7.5h-0.5v-9.1h47.5c2.3,0,4.1-1.5,4.1-3.3v-26.4
	C-101.6,389.4-103.5,387.9-105.7,387.9z M-122.7,399.9c0,0.6-0.6,1.2-1.4,1.2H-197c-0.8,0-1.4-0.5-1.4-1.2v-17.4
	c0-0.6,0.6-1.2,1.4-1.2h72.9c0.8,0,1.4,0.5,1.4,1.2L-122.7,399.9L-122.7,399.9z M-151.8,437.5v28.6c0,0.4-0.4,0.8-1,0.8h-9.2
	c-0.5,0-1-0.4-1-0.8v-28.6c0-0.4,0.4-0.8,1-0.8h9.2C-152.2,436.8-151.8,437.1-151.8,437.5z"/>
</svg>
