<?xml version="1.0" encoding="utf-8"?>
<!-- Generator: Adobe Illustrator 19.0.0, SVG Export Plug-In . SVG Version: 6.00 Build 0)  -->
<svg version="1.1" id="Capa_1" xmlns="http://www.w3.org/2000/svg" xmlns:xlink="http://www.w3.org/1999/xlink" x="0px" y="0px"
	 viewBox="-227 350.3 140.6 140.6" style="enable-background:new -227 350.3 140.6 140.6;" xml:space="preserve">
<style type="text/css">
	.st0{fill:#FFD53D;}
</style>
<circle class="st0" cx="-156.4" cy="420.6" r="68.6"/>
<g>
	<g>
		<g>
			<path d="M-101.5,415.3h-37.6v-43.9c0-1.2-0.9-2.1-2.1-2.1h-58.5c-1.2,0-2.1,0.9-2.1,2.1v98.3c0,1.2,0.9,2.1,2.1,2.1h55.4
				c1.2,0,2.1-0.9,2.1-2.1v-6.3h25.1v6.3c0,1.2,0.9,2.1,2.1,2.1h7.3c1.2,0,2.1-0.9,2.1-2.1v-6.3h1c1.2,0,2.1-0.9,2.1-2.1v-34.5h1
				c1.2,0,2.1-0.9,2.1-2.1v-7.3C-99.4,416.2-100.3,415.3-101.5,415.3z M-172.5,467.5h-25.1v-17.8h25.1V467.5z M-172.5,445.6h-25.1
				v-72.1h25.1V445.6z M-153.7,467.5h-14.6v-94.1h25.1v41.8H-159c-1.2,0-2.1,0.9-2.1,2.1v7.3c0,1.2,0.9,2.1,2.1,2.1h2.1v34.5
				c0,1.2,0.9,2.1,2.1,2.1h1V467.5z M-146.4,467.5h-3.1v-4.2h3.1V467.5z M-109.8,467.5h-3.1v-4.2h3.1V467.5z M-106.7,459.2h-46
				v-14.6h46V459.2z M-106.7,440.3h-46v-13.6h46V440.3z M-103.6,422.6h-53.3v-3.1h53.3V422.6z"/>
			<rect x="-132.8" y="430.9" width="6.3" height="4.2"/>
			<rect x="-132.8" y="448.7" width="6.3" height="4.2"/>
			<rect x="-164.2" y="402.7" width="4.2" height="8.4"/>
			<rect x="-180.9" y="402.7" width="4.2" height="8.4"/>
			<rect x="-188.2" y="456" width="6.3" height="4.2"/>
		</g>
	</g>
</g>
</svg>
