<?xml version="1.0" encoding="utf-8"?>
<!-- Generator: Adobe Illustrator 19.0.0, SVG Export Plug-In . SVG Version: 6.00 Build 0)  -->
<svg version="1.1" id="Capa_1" xmlns="http://www.w3.org/2000/svg" xmlns:xlink="http://www.w3.org/1999/xlink" x="0px" y="0px"
	 viewBox="-227 350.3 140.6 140.6" style="enable-background:new -227 350.3 140.6 140.6;" xml:space="preserve">
<style type="text/css">
	.st0{display:none;fill:#FFD53D;}
</style>
<circle class="st0" cx="-156.4" cy="420.6" r="68.6"/>
<g>
	<g>
		<g>
			<path d="M-105.8,421.6l-44.2-61.1c-0.3-0.4-0.8-0.7-1.4-0.7h-10.2c-0.5,0-1.1,0.3-1.4,0.7l-44.2,61.1c-0.2,0.3-0.3,0.6-0.3,1
				v37.4c0,0.5,0.2,0.9,0.5,1.2c0.3,0.3,0.8,0.5,1.2,0.5h98.5c0.5,0,0.9-0.2,1.2-0.5c0.3-0.3,0.5-0.8,0.5-1.2v-37.4
				C-105.5,422.2-105.6,421.9-105.8,421.6z M-204,431.1h3.4v20.4h-3.4V431.1z M-108.9,458.2H-204v-3.4h95.1L-108.9,458.2
				L-108.9,458.2z M-162.9,451.4h-6.8l-27.5-17.9v-2.5h3L-162.9,451.4z M-188,431.1h26.4v17.2L-188,431.1z M-176,451.4h-21.2v-13.8
				L-176,451.4z M-158.1,451.4v-20.4h3.4v20.4H-158.1z M-143.1,451.4h-6.8l31.2-20.4h3v2.5L-143.1,451.4z M-115.7,437.6v13.8h-21.2
				L-115.7,437.6z M-151.3,448.3v-17.2h26.4L-151.3,448.3z M-108.9,451.4h-3.4v-20.4h3.4V451.4z M-108.9,427.7H-204v-4.5l43.3-60
				h8.5l43.3,60L-108.9,427.7L-108.9,427.7z"/>
			<path d="M-158.8,369.4C-158.8,369.3-158.8,369.3-158.8,369.4c-0.1-0.1-0.2-0.2-0.3-0.2c-0.2-0.1-0.4-0.2-0.7-0.2
				c-0.1,0-0.1,0-0.2,0c0,0-0.1,0-0.1,0c-0.4,0-0.9,0.3-1.2,0.6c0,0-0.1,0.1-0.1,0.1l-37.5,51.9c-0.4,0.5-0.4,1.2-0.1,1.8
				c0.3,0.6,0.9,0.9,1.5,0.9h37.5c0.5,0,0.9-0.2,1.2-0.5c0.3-0.3,0.5-0.8,0.5-1.2v-51.9c0,0,0-0.1,0-0.1
				C-158.2,370.1-158.4,369.7-158.8,369.4z M-161.5,420.9H-194l32.5-45V420.9z"/>
			<path d="M-153,369c-0.1,0-0.1,0-0.2,0c-0.2,0-0.5,0.1-0.7,0.2c-0.1,0-0.1,0-0.2,0.1c0,0-0.1,0.1-0.1,0.1
				c-0.3,0.3-0.5,0.7-0.6,1.1c0,0,0,0.1,0,0.1v51.9c0,0.5,0.2,0.9,0.5,1.2c0.3,0.3,0.8,0.5,1.2,0.5h37.5c0.6,0,1.2-0.4,1.5-0.9
				c0.3-0.6,0.2-1.3-0.1-1.8l-37.5-51.9c0,0-0.1-0.1-0.1-0.1c-0.3-0.3-0.7-0.5-1.2-0.6C-153,369-153,369-153,369z M-151.3,375.9
				l32.5,45h-32.5V375.9z"/>
		</g>
	</g>
</g>
</svg>
