<?xml version="1.0" encoding="utf-8"?>
<!-- Generator: Adobe Illustrator 19.0.0, SVG Export Plug-In . SVG Version: 6.00 Build 0)  -->
<svg version="1.1" id="Capa_1" xmlns="http://www.w3.org/2000/svg" xmlns:xlink="http://www.w3.org/1999/xlink" x="0px" y="0px"
	 viewBox="-227 350.3 140.6 140.6" style="enable-background:new -227 350.3 140.6 140.6;" xml:space="preserve">
<style type="text/css">
	.st0{fill:#FFD53D;}
	.st1{fill:#000002;}
</style>
<circle class="st0" cx="-156.4" cy="420.6" r="68.6"/>
<path class="st1" d="M-113,464.6h-87.3c-0.9,0-1.6-0.7-1.6-1.6v-87.3c0-0.9,0.7-1.6,1.6-1.6h87.3c0.9,0,1.6,0.7,1.6,1.6V463
	C-111.4,463.9-112.1,464.6-113,464.6z M-134.3,461.4h19.6v-19.6l-18.2,18.2c0,0,0,0,0,0c0,0,0,0,0,0L-134.3,461.4z M-159.3,461.4
	h20.5l2.6-2.6l-10.3-10.3L-159.3,461.4z M-182.7,461.4h18.8l28-28l-9.4-9.4l-29.7,29.7l0,0L-182.7,461.4z M-198.8,461.4h11.5
	l8.8-8.8l-9.9-9.9l-10.4,10.4V461.4z M-144.3,446.3l10.3,10.3l19.4-19.4v-20.5l-17.8,17.8l0,0L-144.3,446.3z M-186.1,440.4l9.9,9.9
	l49.4-49.4l-9.9-9.9l-19.4,19.4c0,0,0,0,0,0L-186.1,440.4z M-198.8,426.9v21.6l9.2-9.2c0,0,0,0,0,0c0,0,0,0,0,0l30-30l-10.6-10.6
	L-198.8,426.9z M-143,421.7l9.4,9.4l18.9-18.9c0,0,0,0,0,0v-18.9L-143,421.7z M-198.8,400.6v21.8l12.8-12.6l-10.9-10.9L-198.8,400.6
	z M-194.6,396.7l10.9,10.9l30.6-30.2h-21L-194.6,396.7z M-167.8,396.4l10.6,10.6l29.7-29.7h-20.8L-167.8,396.4z M-134.4,388.7
	l9.9,9.9l9.9-9.9v-11.5h-8.3L-134.4,388.7z M-198.8,377.3v18.9l0.6-0.6c0,0,0.1-0.1,0.1-0.1c0.1-0.1,0.1-0.1,0.2-0.2l19.2-18H-198.8
	z"/>
</svg>
