<?xml version="1.0" encoding="utf-8"?>
<!-- Generator: Adobe Illustrator 19.0.0, SVG Export Plug-In . SVG Version: 6.00 Build 0)  -->
<svg version="1.1" id="Capa_1" xmlns="http://www.w3.org/2000/svg" xmlns:xlink="http://www.w3.org/1999/xlink" x="0px" y="0px"
	 viewBox="-227 350.3 140.6 140.6" style="enable-background:new -227 350.3 140.6 140.6;" xml:space="preserve">
<style type="text/css">
	.st0{fill:#FFD53D;}
</style>
<circle class="st0" cx="-156.4" cy="420.6" r="68.6"/>
<g id="Layer_1">
	<g>
		<g>
			<path d="M-106,442.9h-14.3v-13.4h14.3c1.3,0,2.4-1,2.4-2.4v-14.7c0-1.3-1-2.4-2.4-2.4h-14.3V396c0-1.3-1-2.4-2.4-2.4h-14.3v-14.1
				c0-1.3-1-2.4-2.4-2.4h-7.9l0,0c2.5,0.4,4.9,1.4,7.2,3c0,4.5,0,8.9,0,13.4h-15.2h-15.2v-13.4c10.1,0,20.3,0,30.4,0
				c0.4-0.4-2.2-2.7-7.2-3.1c-8.2,0-16.4,0-24.7,0l0,0h-32.5c-1.3,0-2.4,1-2.4,2.4V395c0,0.1,0,0.1,0,0.2v16.4c0,0.1,0,0.1,0,0.2
				v16.1c0,0.1,0,0.1,0,0.2v5.4c0.3,3.7,0.8,8.1,1.4,8.1c0.6,0,1.2-4.4,1.6-8.1v-3.8h13.7v13.4h-13.7c0-3.2,0-6.4,0-9.6
				c-0.1,0.5-0.7,5.4-1.5,5.4c-0.8,0-1.5-4.9-1.5-5.4c0,3.7,0,7.4,0,11.1c0,0.1,0,0.1,0,0.2V460c0,1.3,1,2.4,2.4,2.4h32.5l0,0h33.4
				l0,0h32.5c1.3,0,2.4-1,2.4-2.4v-14.7C-103.7,444-104.7,442.9-106,442.9z M-121.9,413.1h15.2v13.4h-15.2h-15.2v-13.4H-121.9z
				 M-153.8,396.7h15.2h15.2v13.4h-15.2l0,0h-15.2L-153.8,396.7L-153.8,396.7z M-140.1,413.1v13.4h-15.2l0,0h-15.2v-13.4h15.2
				H-140.1z M-156.8,396.7v13.4H-172l0,0h-15.2v-13.4H-156.8z M-203.8,380.3h30.4v13.4h-15.2h-15.2V380.3z M-203.8,396.7h13.7v13.4
				h-13.7V396.7z M-203.8,426.5v-13.4h15.2h15.2v13.4h-15.2l0,0H-203.8z M-173.5,459.4h-30.4V446h15.2l0,0h15.2
				C-173.5,446-173.5,459.4-173.5,459.4z M-172,442.9L-172,442.9h-15.2v-13.4h15.2l0,0h15.2v13.4H-172z M-140.1,459.4h-30.3V446
				h15.2l0,0h15.2V459.4z M-138.6,442.9L-138.6,442.9h-15.2v-13.4h15.2l0,0h15.2v13.4H-138.6z M-106.7,459.4h-30.3V446h15.2h15.2
				V459.4z"/>
		</g>
	</g>
</g>
</svg>
