<?xml version="1.0" encoding="utf-8"?>
<!-- Generator: Adobe Illustrator 19.0.0, SVG Export Plug-In . SVG Version: 6.00 Build 0)  -->
<svg version="1.1" id="Capa_1" xmlns="http://www.w3.org/2000/svg" xmlns:xlink="http://www.w3.org/1999/xlink" x="0px" y="0px"
	 viewBox="-227 350.3 140.6 140.6" style="enable-background:new -227 350.3 140.6 140.6;" xml:space="preserve">
<style type="text/css">
	.st0{fill:#FFD53D;}
</style>
<circle class="st0" cx="-156.4" cy="420.6" r="68.6"/>
<path d="M-106.1,382.4h-101.3c-0.9,0-1.6-0.7-1.6-1.6s0.7-1.6,1.6-1.6h101.3c0.9,0,1.6,0.7,1.6,1.6S-105.2,382.4-106.1,382.4z"/>
<path d="M-106.1,388.9h-101.3c-0.9,0-1.6-0.7-1.6-1.6c0-0.9,0.7-1.6,1.6-1.6h101.3c0.9,0,1.6,0.7,1.6,1.6
	C-104.4,388.2-105.2,388.9-106.1,388.9z"/>
<path d="M-156.7,433c-0.9,0-1.6-0.7-1.6-1.6v-44.1c0-0.9,0.7-1.6,1.6-1.6c0.9,0,1.6,0.7,1.6,1.6v44.1
	C-155.1,432.3-155.8,433-156.7,433z"/>
<path d="M-187.7,413.4c-0.9,0-1.6-0.7-1.6-1.6v-24.5c0-0.9,0.7-1.6,1.6-1.6c0.9,0,1.6,0.7,1.6,1.6v24.5
	C-186.1,412.7-186.8,413.4-187.7,413.4z"/>
<path d="M-137.1,460.8h-39.2c-0.9,0-1.6-0.7-1.6-1.6c0-0.9,0.7-1.6,1.6-1.6h39.2c0.9,0,1.6,0.7,1.6,1.6
	C-135.5,460.1-136.2,460.8-137.1,460.8z"/>
<path d="M-156.7,467.4c-4.5,0-8.2-3.7-8.2-8.2c0-0.9,0.7-1.6,1.6-1.6c0.9,0,1.6,0.7,1.6,1.6c0,2.7,2.2,4.9,4.9,4.9
	c2.7,0,4.9-2.2,4.9-4.9c0-0.9,0.7-1.6,1.6-1.6c0.9,0,1.6,0.7,1.6,1.6C-148.5,463.7-152.2,467.4-156.7,467.4z"/>
<path d="M-176.3,460.8c-0.9,0-1.6-0.7-1.6-1.6V451c0-0.9,0.7-1.6,1.6-1.6c0.9,0,1.6,0.7,1.6,1.6v8.2
	C-174.7,460.1-175.4,460.8-176.3,460.8z"/>
<path d="M-137.1,460.8c-0.9,0-1.6-0.7-1.6-1.6V451c0-0.9,0.7-1.6,1.6-1.6c0.9,0,1.6,0.7,1.6,1.6v8.2
	C-135.5,460.1-136.2,460.8-137.1,460.8z"/>
<path d="M-156.7,478.8c-0.9,0-1.6-0.7-1.6-1.6v-4.9c0-0.9,0.7-1.6,1.6-1.6c0.9,0,1.6,0.7,1.6,1.6v4.9
	C-155.1,478.1-155.8,478.8-156.7,478.8z"/>
<path d="M-145.2,474.1c-0.4,0-0.8-0.2-1.2-0.5l-3.5-3.5c-0.6-0.6-0.6-1.7,0-2.3c0.6-0.6,1.7-0.6,2.3,0l3.5,3.5
	c0.6,0.6,0.6,1.7,0,2.3C-144.3,473.9-144.8,474.1-145.2,474.1z"/>
<path d="M-168.2,474c-0.4,0-0.8-0.2-1.2-0.5c-0.6-0.6-0.6-1.7,0-2.3l3.5-3.5c0.6-0.6,1.7-0.6,2.3,0c0.6,0.6,0.6,1.7,0,2.3l-3.5,3.5
	C-167.4,473.8-167.8,474-168.2,474z"/>
<path d="M-174.7,426.5c-0.9,0-1.6-0.7-1.6-1.6c0-6.3-5.1-11.4-11.4-11.4s-11.4,5.1-11.4,11.4c0,0.9-0.7,1.6-1.6,1.6
	c-0.9,0-1.6-0.7-1.6-1.6c0-8.1,6.6-14.7,14.7-14.7c8.1,0,14.7,6.6,14.7,14.7C-173,425.8-173.8,426.5-174.7,426.5z"/>
<path d="M-174.7,429.8h-26.1c-0.9,0-1.6-0.7-1.6-1.6c0-0.9,0.7-1.6,1.6-1.6h26.1c0.9,0,1.6,0.7,1.6,1.6
	C-173,429-173.8,429.8-174.7,429.8z"/>
<path d="M-187.7,434.6c-3.6,0-6.5-2.9-6.5-6.5c0-0.9,0.7-1.6,1.6-1.6c0.9,0,1.6,0.7,1.6,1.6c0,1.8,1.5,3.3,3.3,3.3s3.3-1.5,3.3-3.3
	c0-0.9,0.7-1.6,1.6-1.6c0.9,0,1.6,0.7,1.6,1.6C-181.2,431.7-184.1,434.6-187.7,434.6z"/>
<path d="M-125.7,413.4c-0.9,0-1.6-0.7-1.6-1.6v-24.5c0-0.9,0.7-1.6,1.6-1.6c0.9,0,1.6,0.7,1.6,1.6v24.5
	C-124,412.7-124.8,413.4-125.7,413.4z"/>
<path d="M-112.6,426.5c-0.9,0-1.6-0.7-1.6-1.6c0-6.3-5.1-11.4-11.4-11.4s-11.4,5.1-11.4,11.4c0,0.9-0.7,1.6-1.6,1.6
	c-0.9,0-1.6-0.7-1.6-1.6c0-8.1,6.6-14.7,14.7-14.7s14.7,6.6,14.7,14.7C-111,425.8-111.7,426.5-112.6,426.5z"/>
<path d="M-137.1,452.6c-0.9,0-1.6-0.7-1.6-1.6c0-9.9-8.1-18-18-18s-18,8.1-18,18c0,0.9-0.7,1.6-1.6,1.6c-0.9,0-1.6-0.7-1.6-1.6
	c0-11.7,9.5-21.2,21.2-21.2s21.2,9.5,21.2,21.2C-135.5,451.9-136.2,452.6-137.1,452.6z"/>
<path d="M-112.6,429.8h-26.1c-0.9,0-1.6-0.7-1.6-1.6c0-0.9,0.7-1.6,1.6-1.6h26.1c0.9,0,1.6,0.7,1.6,1.6
	C-111,429-111.7,429.8-112.6,429.8z"/>
<path d="M-125.7,434.6c-3.6,0-6.5-2.9-6.5-6.5c0-0.9,0.7-1.6,1.6-1.6c0.9,0,1.6,0.7,1.6,1.6c0,1.8,1.5,3.3,3.3,3.3
	c1.8,0,3.3-1.5,3.3-3.3c0-0.9,0.7-1.6,1.6-1.6c0.9,0,1.6,0.7,1.6,1.6C-119.1,431.7-122.1,434.6-125.7,434.6z"/>
<path d="M-200.8,429.8c-0.9,0-1.6-0.7-1.6-1.6v-3.3c0-0.9,0.7-1.6,1.6-1.6c0.9,0,1.6,0.7,1.6,1.6v3.3
	C-199.2,429-199.9,429.8-200.8,429.8z"/>
<path d="M-174.7,429.8c-0.9,0-1.6-0.7-1.6-1.6v-3.3c0-0.9,0.7-1.6,1.6-1.6c0.9,0,1.6,0.7,1.6,1.6v3.3
	C-173,429-173.8,429.8-174.7,429.8z"/>
<path d="M-138.7,429.8c-0.9,0-1.6-0.7-1.6-1.6v-3.3c0-0.9,0.7-1.6,1.6-1.6c0.9,0,1.6,0.7,1.6,1.6v3.3
	C-137.1,429-137.8,429.8-138.7,429.8z"/>
<path d="M-112.6,429.8c-0.9,0-1.6-0.7-1.6-1.6v-3.3c0-0.9,0.7-1.6,1.6-1.6c0.9,0,1.6,0.7,1.6,1.6v3.3
	C-111,429-111.7,429.8-112.6,429.8z"/>
</svg>
