<?xml version="1.0" encoding="utf-8"?>
<!-- Generator: Adobe Illustrator 19.0.0, SVG Export Plug-In . SVG Version: 6.00 Build 0)  -->
<svg version="1.1" id="Warstwa_2" xmlns="http://www.w3.org/2000/svg" xmlns:xlink="http://www.w3.org/1999/xlink" x="0px" y="0px"
	 viewBox="0 0 300 150" style="enable-background:new 0 0 300 150;" xml:space="preserve">
<style type="text/css">
	.st0{fill:#FFFFFF;stroke:#FFFFFF;stroke-miterlimit:10;}
	.st1{opacity:0.48;fill:#FFFFFF;stroke:#FFFFFF;stroke-miterlimit:10;}
</style>
<path id="XMLID_1_" class="st0" d="M0.2,129.5c0,0,50.4-110.8,103.4-100.8c0,0,30,0.4,59,53.9c17.6,32.4,84,9.9,115-11.9
	c0.5-0.4,1-0.7,1.3-0.9c2.9-1.7,6.6-3.5,11-4.9c7.4-2.3,14-2.6,18.6-2.5V156l-312-4.7v-21.8H0.2z"/>
<path id="XMLID_2_" class="st1" d="M-3.8,123.5c0,0,50.4-110.8,103.4-100.8c0,0,30,0.4,59,53.9c17.6,32.4,84,9.9,115-11.9
	c0.5-0.4,1-0.7,1.3-0.9c2.9-1.7,6.6-3.5,11-4.9c7.4-2.3,14-2.6,18.6-2.5V150l-312-4.7v-21.8H-3.8z"/>
</svg>
